:FULLY-SPECIFIED
:FORCE-ALL-JOINTS-BE-3DOF
:DEGREES
2039
root -3.08532 14.8884 21.9659 904.388 15.3299 178.348
lfemur -31.966 18.0439 -18.7755
ltibia 61.1336 0 0
lfoot -16.1797 24.999 0
ltoes -29.3205 0 0
rfemur -28.3949 -5.53067 10.9622
rtibia 61.808 0 0
rfoot 4.24954 -19.0041 0
rtoes 0.543448 0 0
lowerback 12.62 -0.461965 -2.57537
upperback -0.353977 -0.785632 3.05205
thorax -7.42928 -0.216139 4.82114
lowerneck -3.83794 2.84778 -1.56085
upperneck 5.11607 3.87281 -3.43102
head 2.83178 1.79424 -0.831431
lclavicle -3.36029e-14 2.89855e-14 0
lhumerus -7.51897 -0.743465 78.7441
lradius 53.5424 0 0
lwrist -2.17846 0 0
lhand -25.3099 37.4273 0
lfingers 7.12502 0 0
lthumb 1.21221 -621.699 0
rclavicle -3.36029e-14 2.89855e-14 0
rhumerus -28.376 5.30294 -92.5767
rradius 74.1503 0 0
rwrist -16.8557 0 0
rhand 0.718402 -398.231 0
rfingers 7.12502 0 0
rthumb 26.275 293.602 0
2040
root -3.10649 14.884 21.8086 903.854 13.8079 178.138
lfemur -30.5026 17.2448 -19.0199
ltibia 60.7109 0 0
lfoot -16.8081 24.8841 0
ltoes -30.0143 0 0
rfemur -29.1767 -5.7549 10.7331
rtibia 60.5688 0 0
rfoot 5.30634 -17.9513 0
rtoes 0.826563 0 0
lowerback 12.7747 -0.325922 -2.83332
upperback -0.284626 -0.666928 2.93902
thorax -7.45513 -0.155871 4.82629
lowerneck -3.78864 2.28819 -1.97194
upperneck 5.44812 3.11233 -3.08654
head 2.93419 1.40787 -0.69212
lclavicle -3.58216e-14 2.59712e-14 0
lhumerus -10.0771 -1.68857 80.1183
lradius 56.634 0 0
lwrist 1.31818 0 0
lhand -25.2891 37.0994 0
lfingers 7.12502 0 0
lthumb 1.23232 -620.178 0
rclavicle -3.58216e-14 2.59712e-14 0
rhumerus -23.9696 4.11048 -92.6228
rradius 70.8753 0 0
rwrist -11.3858 0 0
rhand 0.477814 -398.017 0
rfingers 7.12502 0 0
rthumb 26.0445 293.784 0
2041
root -3.12765 14.8797 21.6513 903.256 12.1011 177.892
lfemur -28.8741 16.3837 -19.2677
ltibia 60.2529 0 0
lfoot -17.4981 24.7745 0
ltoes -30.7674 0 0
rfemur -30.0385 -5.99963 10.4634
rtibia 59.2182 0 0
rfoot 6.49627 -16.7884 0
rtoes 1.16426 0 0
lowerback 12.94 -0.178626 -3.12393
upperback -0.209333 -0.540911 2.81426
thorax -7.48174 -0.0915444 4.83621
lowerneck -3.73746 1.66836 -2.42714
upperneck 5.81252 2.27009 -2.70589
head 3.04604 0.979979 -0.53797
lclavicle -3.83222e-14 2.2797e-14 0
lhumerus -12.964 -2.67282 81.678
lradius 59.9288 0 0
lwrist 5.10238 0 0
lhand -25.2732 36.7406 0
lfingers 7.12502 0 0
lthumb 1.24769 -619.284 0
rclavicle -3.83222e-14 2.2797e-14 0
rhumerus -19.1687 2.76858 -92.6912
rradius 67.2803 0 0
rwrist -5.39677 0 0
rhand 0.222263 -397.78 0
rfingers 7.12502 0 0
rthumb 25.7997 293.985 0
2042
root -3.14881 14.8753 21.494 902.59 10.1987 177.608
lfemur -27.0713 15.4584 -19.5184
ltibia 59.758 0 0
lfoot -18.2528 24.6712 0
ltoes -31.5825 0 0
rfemur -30.9846 -6.26584 10.1504
rtibia 57.751 0 0
rfoot 7.82733 -15.5093 0
rtoes 1.56044 0 0
lowerback 13.1164 -0.0195898 -3.44916
upperback -0.127829 -0.40739 2.67715
thorax -7.50906 -0.0230291 4.85132
lowerneck -3.68444 0.984998 -2.92884
upperneck 6.21091 1.34161 -2.28713
head 3.16779 0.508311 -0.368176
lclavicle -4.11215e-14 1.94604e-14 0
lhumerus -16.1995 -3.69598 83.4348
lradius 63.4332 0 0
lwrist 9.18648 0 0
lhand -25.2627 36.3494 0
lfingers 7.12502 0 0
lthumb 1.25781 -619.079 0
rclavicle -4.11215e-14 1.94604e-14 0
rhumerus -13.9548 1.2683 -92.7838
rradius 63.3491 0 0
rwrist 1.13722 0 0
rhand -0.0486525 -397.521 0
rfingers 7.12502 0 0
rthumb 25.5402 294.207 0
2043
root -3.16997 14.871 21.3367 901.851 8.08968 177.282
lfemur -25.0847 14.4662 -19.7712
ltibia 59.2246 0 0
lfoot -19.0754 24.5751 0
ltoes -32.4623 0 0
rfemur -32.019 -6.55453 9.79114
rtibia 56.1618 0 0
rfoot 9.30755 -14.1082 0
rtoes 2.019 0 0
lowerback 13.3042 0.151673 -3.81099
upperback -0.039849 -0.266171 2.52707
thorax -7.53707 0.0498045 4.87203
lowerneck -3.6296 0.234806 -3.47945
upperneck 6.64493 0.322433 -1.82831
head 3.29988 -0.00940299 -0.181934
lclavicle -4.42366e-14 1.59588e-14 0
lhumerus -19.8038 -4.75782 85.4003
lradius 67.1532 0 0
lwrist 13.5828 0 0
lhand -25.2582 35.9243 0
lfingers 7.12502 0 0
lthumb 1.26216 -619.63 0
rclavicle -4.42366e-14 1.59588e-14 0
rhumerus -8.3094 -0.399336 -92.9024
rradius 59.0652 0 0
rwrist 8.24186 0 0
rhand -0.335336 -397.239 0
rfingers 7.12502 0 0
rthumb 25.2656 294.45 0
2044
root -3.19113 14.8666 21.1794 901.037 5.76328 176.913
lfemur -22.9052 13.4046 -20.0256
ltibia 58.6513 0 0
lfoot -19.969 24.4872 0
ltoes -33.4093 0 0
rfemur -33.1461 -6.86666 9.3829
rtibia 54.4456 0 0
rfoot 10.9449 -12.5791 0
rtoes 2.54383 0 0
lowerback 13.5037 0.335648 -4.21138
upperback 0.0548756 -0.117063 2.36339
thorax -7.56571 0.127086 4.89878
lowerneck -3.57298 -0.585505 -4.08138
upperneck 7.11622 -0.791906 -1.3275
head 3.44277 -0.575428 0.0215606
lclavicle -4.76846e-14 1.22899e-14 0
lhumerus -23.7967 -5.85809 87.5861
lradius 71.0952 0 0
lwrist 18.3037 0 0
lhand -25.2602 35.4638 0
lfingers 7.12502 0 0
lthumb 1.26022 -620.999 0
rclavicle -4.76846e-14 1.22899e-14 0
rhumerus -2.21394 -2.24329 -93.0489
rradius 54.4126 0 0
rwrist 15.9429 0 0
rhand -0.63819 -396.931 0
rfingers 7.12502 0 0
rthumb 24.9756 294.717 0
2045
root -3.2123 14.8623 21.0221 900.144 3.20857 176.499
lfemur -20.5234 12.2713 -20.2808
ltibia 58.0366 0 0
lfoot -20.9368 24.4085 0
ltoes -34.4263 0 0
rfemur -34.3701 -7.20322 8.92284
rtibia 52.5969 0 0
rfoot 12.7475 -10.9163 0
rtoes 3.13884 0 0
lowerback 13.7154 0.532821 -4.65231
upperback 0.156611 0.0401271 2.18548
thorax -7.59497 0.208945 4.93198
lowerneck -3.51459 -1.47923 -4.73702
upperneck 7.6264 -2.00587 -0.782758
head 3.59693 -1.19203 0.243113
lclavicle -5.14825e-14 8.45119e-15 0
lhumerus -28.1983 -6.99656 90.0037
lradius 75.2653 0 0
lwrist 23.3616 0 0
lhand -25.2693 34.9664 0
lfingers 7.12502 0 0
lthumb 1.25146 -623.251 0
rclavicle -5.14825e-14 8.45119e-15 0
rhumerus 4.35008 -4.27253 -93.2253
rradius 49.3749 0 0
rwrist 24.266 0 0
rhand -0.957617 -396.597 0
rfingers 7.12502 0 0
rthumb 24.6696 295.007 0
2046
root -3.23346 14.8579 20.8648 899.167 0.414664 176.036
lfemur -17.93 11.0638 -20.5361
ltibia 57.3787 0 0
lfoot -21.9819 24.3399 0
ltoes -35.5159 0 0
rfemur -35.6951 -7.56519 8.40814
rtibia 50.6106 0 0
rfoot 14.7232 -9.11365 0
rtoes 3.80791 0 0
lowerback 13.9395 0.743679 -5.13574
upperback 0.265624 0.205591 1.99273
thorax -7.6248 0.295512 4.97205
lowerneck -3.45447 -2.44965 -5.44878
upperneck 8.17714 -3.32393 -0.192135
head 3.7628 -1.86147 0.483529
lclavicle -5.56472e-14 4.44007e-15 0
lhumerus -33.0286 -8.173 92.6646
lradius 79.6697 0 0
lwrist 28.7687 0 0
lhand -25.286 34.4305 0
lfingers 7.12502 0 0
lthumb 1.23536 -626.451 0
rclavicle -5.56472e-14 4.44007e-15 0
rhumerus 11.4012 -6.49601 -93.4333
rradius 43.9359 0 0
rwrist 33.237 0 0
rhand -1.29402 -396.236 0
rfingers 7.12502 0 0
rthumb 24.3474 295.322 0
2047
root -3.25462 14.8535 20.7075 898.103 -2.62934 175.522
lfemur -15.1157 9.77958 -20.7909
ltibia 56.6763 0 0
lfoot -23.1075 24.2824 0
ltoes -36.6808 0 0
rfemur -37.1254 -7.95356 7.83597
rtibia 48.4814 0 0
rfoot 16.8801 -7.1654 0
rtoes 4.55495 0 0
lowerback 14.1764 0.968708 -5.66365
upperback 0.382183 0.37952 1.78451
thorax -7.65516 0.386916 5.01941
lowerneck -3.39265 -3.50007 -6.21906
upperneck 8.77005 -4.75053 0.446307
head 3.94084 -2.58602 0.743611
lclavicle -6.01959e-14 2.54088e-16 0
lhumerus -38.3074 -9.38717 95.5806
lradius 84.3146 0 0
lwrist 34.5374 0 0
lhand -25.3108 33.8546 0
lfingers 7.12502 0 0
lthumb 1.21141 -630.661 0
rclavicle -6.01959e-14 2.54088e-16 0
rhumerus 18.9579 -8.9227 -93.6749
rradius 38.0794 0 0
rwrist 42.8815 0 0
rhand -1.6478 -395.846 0
rfingers 7.12502 0 0
rthumb 24.0086 295.663 0
